<svg xmlns="http://www.w3.org/2000/svg" viewBox="139 39 200 38.364"><defs><style>.a{fill:#fff;}</style></defs><g transform="translate(109.1 39)"><g transform="translate(30.262)"><g transform="translate(0)"><path class="a" d="M64.408,0a20.151,20.151,0,0,0-6.161,7.093,5.225,5.225,0,0,0-.777.362c-.518.259-1.087.518-1.657.777-1.709.828-3.365,1.76-4.918,2.692q-.854.544-1.864,1.243a10.5,10.5,0,0,0-.932.673c-.621.466-1.243.932-1.812,1.4l-.052.052c-.57.466-1.139.932-1.76,1.5l-.052.052a15.238,15.238,0,0,0-1.294,1.243l-.777.777-.466.466a3.125,3.125,0,0,1-.414.414c-.466.518-.88,1.035-1.294,1.5l-.052.1-.1.155c-.1.155-.259.311-.362.466a4.478,4.478,0,0,0-.362.518l-.1.155c-.1.1-.155.259-.259.362a3.143,3.143,0,0,1-.362.518c-.207.311-.414.673-.621,1.035-.414.673-.777,1.346-1.139,2.071-.052.155-.155.311-.207.466l-.052.1c-.1.207-.155.362-.259.57a34.907,34.907,0,0,0-1.553,4.452c-.052.207-.1.466-.155.673-.052.155-.052.259-.1.414l-.052.207c-.052.155-.052.259-.1.414v.052c0,.1-.052.207-.052.311H30.6C31.014,18.172,41.887,9.578,50.947,5.022A71.036,71.036,0,0,1,64.408,0Z" transform="translate(-30.6)"/><g transform="translate(5.177 9.112)"><path class="a" d="M62.138,17.6a34.562,34.562,0,0,0-2.226,8.284l-.362.259a4.478,4.478,0,0,0-.518.362l-.1.052a4.553,4.553,0,0,1-.518.311,46.278,46.278,0,0,0-4.245,3.313c-.259.259-.518.466-.777.725s-.518.466-.777.725A31.611,31.611,0,0,0,48,37.377a3.482,3.482,0,0,1-.362.57,10505806623089.936,10505806623089.936,0,0,1-.311.518,5.648,5.648,0,0,1-.311.57c-.052.1-.155.259-.207.362l-.1.207-.1.207c-.052.1-.1.259-.155.362a5.044,5.044,0,0,0-.259.57c-.1.207-.155.414-.259.621l-.155.311H40.6c.052-.155.052-.311.1-.466s.052-.311.1-.466l.052-.155v-.052c.052-.207.1-.362.155-.57l.155-.621a1.512,1.512,0,0,0,.1-.466l.052-.1a11.651,11.651,0,0,1,.414-1.243l.1-.259.1-.259a12.645,12.645,0,0,1,.518-1.243c.155-.362.311-.673.466-1.035.1-.155.155-.362.259-.518.207-.362.362-.725.57-1.035a4.553,4.553,0,0,0,.311-.518A21.378,21.378,0,0,1,45.363,30.7a2.845,2.845,0,0,1,.362-.466,2.845,2.845,0,0,1,.362-.466c.1-.155.259-.311.362-.466.052-.052.1-.155.207-.207.052-.052.1-.155.155-.207a13.575,13.575,0,0,1,1.139-1.294,7.963,7.963,0,0,0,.621-.673c.259-.259.518-.518.88-.828.155-.155.311-.259.466-.414a11.378,11.378,0,0,1,1.191-1.035c.155-.155.362-.311.518-.466.362-.311.725-.57,1.087-.88.259-.207.57-.414.828-.621.621-.466,1.243-.88,1.916-1.346.259-.155.518-.362.777-.518.207-.155.466-.259.673-.414a4.553,4.553,0,0,1,.518-.311l.1-.052c1.346-.828,2.8-1.553,4.245-2.278l.362-.155Z" transform="translate(-40.6 -17.6)"/><g transform="translate(19.363 9.319)"><path class="a" d="M78.1,35.7a.269.269,0,0,1,.207-.1h0C78.2,35.652,78.152,35.652,78.1,35.7Z" transform="translate(-78.048 -35.6)"/><path d="M78.207,35.6h0a.269.269,0,0,1-.207.1C78.1,35.652,78.155,35.652,78.207,35.6Z" transform="translate(-78 -35.6)"/></g></g><g transform="translate(11.804 18.431)"><path class="a" d="M65.567,44.962a2.593,2.593,0,0,1-.414.362A28.954,28.954,0,0,0,60.7,50.709c-.1.207-.259.362-.362.57h5.747C65.929,50.088,65.67,47.81,65.567,44.962Zm-1.553-6.368-.1.1-.414.311-.311.207c-.1.052-.155.155-.259.207a.909.909,0,0,0-.259.207l-.052.052a1.373,1.373,0,0,1-.311.259,4.669,4.669,0,0,0-.518.466,4.669,4.669,0,0,0-.518.466c-.414.362-.828.777-1.243,1.191a.909.909,0,0,1-.259.207l-.1.1c-.414.414-.88.88-1.4,1.5a7.745,7.745,0,0,0-.57.673l-.207.207a4.526,4.526,0,0,1-.414.518c-.259.311-.466.621-.725.932-.259.362-.466.673-.673.984-.1.155-.207.362-.311.518s-.207.362-.311.518c-.311.518-.621,1.035-.932,1.6-.052.155-.155.311-.207.466-.1.155-.155.362-.259.518l-.1.207-.1.207a.181.181,0,0,1-.052.1h5.177A34.083,34.083,0,0,1,65.463,43.1V41.856c.052-1.553.1-3.055.259-4.556C65.2,37.714,64.583,38.128,64.014,38.594Z" transform="translate(-53.4 -36.42)"/><path d="M78.1,35.7a.269.269,0,0,1,.207-.1h0C78.2,35.652,78.152,35.652,78.1,35.7Z" transform="translate(-65.312 -35.6)"/></g></g><g transform="translate(38.571 15.066)"><g transform="translate(152.576)"><g transform="translate(2.796 2.33)"><path class="a" d="M408.1,37.431h-.725l-.621-1.035c-.052-.1-.1-.155-.155-.259s-.1-.1-.155-.155-.1-.052-.155-.1c-.052,0-.155-.052-.207-.052h-.259v1.553H405.2V33.6h1.243a1.761,1.761,0,0,1,.518.052,1.55,1.55,0,0,1,.414.207,1.375,1.375,0,0,1,.259.311,1.034,1.034,0,0,1,.1.466.768.768,0,0,1-.052.362l-.155.311a.517.517,0,0,1-.259.207,2.525,2.525,0,0,1-.362.155h0c.052.052.1.1.155.1l.155.155.155.155c.052.052.1.155.155.207Zm-2.33-3.313V35.36h.518a.388.388,0,0,0,.259-.052c.1-.052.155-.052.207-.155a.714.714,0,0,0,.155-.207.467.467,0,0,0,.052-.259.51.51,0,0,0-.155-.414.687.687,0,0,0-.518-.155Z" transform="translate(-405.2 -33.6)"/></g><path class="a" d="M404.335,37.57a3.935,3.935,0,1,1,3.935-3.935A3.933,3.933,0,0,1,404.335,37.57Zm0-7.559a3.624,3.624,0,1,0,3.624,3.624A3.6,3.6,0,0,0,404.335,30.011Z" transform="translate(-400.089 -29.389)"/><path class="a" d="M404.045,37.591a4.245,4.245,0,1,1,4.245-4.245A4.265,4.265,0,0,1,404.045,37.591Zm0-7.559a3.365,3.365,0,1,0,3.365,3.365A3.426,3.426,0,0,0,404.045,30.032Z" transform="translate(-399.8 -29.1)"/></g><g transform="translate(0 3.883)"><g transform="translate(0 0.362)"><path class="a" d="M112.5,40.1V51.848h-3.262V40.1H105.1V37.3h11.494v2.8Z" transform="translate(-105.1 -37.3)"/></g><g transform="translate(13.927 0.362)"><path class="a" d="M132,37.3h3.262V51.848H132Z" transform="translate(-132 -37.3)"/></g><g transform="translate(20.761 0.362)"><path class="a" d="M156.279,39.216A6.828,6.828,0,0,1,158.35,44.5a7.223,7.223,0,0,1-2.019,5.384c-1.346,1.294-3.417,1.967-6.161,1.967H145.2V37.3h5.126A8.652,8.652,0,0,1,156.279,39.216ZM153.9,47.862a4.262,4.262,0,0,0,1.191-3.262,4.466,4.466,0,0,0-1.191-3.313,5.048,5.048,0,0,0-3.676-1.139H148.41V49h2.071A5.031,5.031,0,0,0,153.9,47.862Z" transform="translate(-145.2 -37.3)"/></g><g transform="translate(36.707 0.362)"><path class="a" d="M186.51,37.3v2.9h-7.248v3h6.523v2.744h-6.523v3h7.455V51.8H176V37.3Z" transform="translate(-176 -37.3)"/></g><g transform="translate(50.272 0.362)"><path class="a" d="M211.26,37.3h3.262V51.848H211.26v-5.7h-5.8v5.7H202.2V37.3h3.262v6.057h5.8Z" transform="translate(-202.2 -37.3)"/></g><g transform="translate(65.907 0.362)"><path class="a" d="M236.49,48.121a2.632,2.632,0,0,0,2.174.984,2.567,2.567,0,0,0,2.174-.984,4.427,4.427,0,0,0,.777-2.744V37.3h3.262v8.128a6.379,6.379,0,0,1-1.76,4.867A6.05,6.05,0,0,1,238.665,52a6.255,6.255,0,0,1-4.5-1.709,6.379,6.379,0,0,1-1.76-4.867V37.3h3.262v8.025A4.844,4.844,0,0,0,236.49,48.121Z" transform="translate(-232.4 -37.3)"/></g><g transform="translate(81.75 0.362)"><path class="a" d="M273.2,37.3h3.262V51.848H273.2l-6.938-9.112v9.112H263V37.3h3.055l7.145,9.371Z" transform="translate(-263 -37.3)"/></g><g transform="translate(97.541 0.362)"><path class="a" d="M300.9,40.1V51.848h-3.262V40.1H293.5V37.3h11.494v2.8Z" transform="translate(-293.5 -37.3)"/></g><g transform="translate(111.416 0.362)"><path class="a" d="M330.758,37.3v2.9H323.51v3h6.523v2.744H323.51v3h7.507V51.8H320.3V37.3Z" transform="translate(-320.3 -37.3)"/></g><g transform="translate(125.032 0.362)"><path class="a" d="M358.353,42.115c0,2.33-.932,3.831-2.744,4.5l3.676,5.177H355.3l-3.21-4.66h-2.226V51.8H346.6V37.3h5.488c2.278,0,3.883.362,4.815,1.139A4.408,4.408,0,0,1,358.353,42.115Zm-3.883,1.76a2.155,2.155,0,0,0,.621-1.709,1.8,1.8,0,0,0-.621-1.6,3.825,3.825,0,0,0-2.174-.414h-2.433v4.245h2.382A3.521,3.521,0,0,0,354.47,43.875Z" transform="translate(-346.6 -37.3)"/></g><g transform="translate(139.063)"><path class="a" d="M378.153,39.862a1.3,1.3,0,0,0-.466,1.035,1.11,1.11,0,0,0,.569.984,8.666,8.666,0,0,0,2.64.88,7.165,7.165,0,0,1,3.21,1.553,3.679,3.679,0,0,1,1.139,2.951,3.834,3.834,0,0,1-1.45,3.158,5.805,5.805,0,0,1-3.883,1.191,8.955,8.955,0,0,1-6.213-2.537l1.916-2.382a6.72,6.72,0,0,0,4.349,2.071,2.148,2.148,0,0,0,1.4-.362,1.294,1.294,0,0,0,0-2.071,7.088,7.088,0,0,0-2.123-.777A9.791,9.791,0,0,1,375.512,44a3.719,3.719,0,0,1-1.191-3.055,3.84,3.84,0,0,1,1.5-3.21A6.139,6.139,0,0,1,379.55,36.6a8.169,8.169,0,0,1,2.9.518,8.014,8.014,0,0,1,2.537,1.4L383.33,40.9a6.6,6.6,0,0,0-3.935-1.45A2.22,2.22,0,0,0,378.153,39.862Z" transform="translate(-373.7 -36.6)"/></g></g></g></g><rect class="a" width="24.489" height="2.123" transform="translate(29.9 36.241)"/></g></svg>