<svg xmlns="http://www.w3.org/2000/svg" viewBox="182.976 1243 26.024 21.108"><defs><style>.a{fill:#3758fe;fill-rule:evenodd;}</style></defs><g transform="translate(-1112.024 397)"><path class="a" d="M46.241,23.108A15.046,15.046,0,0,0,61.421,7.928V7.2a11.752,11.752,0,0,0,2.6-2.747,12,12,0,0,1-3.036.867A5.625,5.625,0,0,0,63.3,2.434a13.261,13.261,0,0,1-3.325,1.3A5.163,5.163,0,0,0,56.072,2a5.432,5.432,0,0,0-5.349,5.349,2.819,2.819,0,0,0,.145,1.157A14.948,14.948,0,0,1,39.88,2.867a5.537,5.537,0,0,0-.723,2.747A5.744,5.744,0,0,0,41.47,10.1a4.874,4.874,0,0,1-2.458-.723h0a5.284,5.284,0,0,0,4.337,5.2,4.457,4.457,0,0,1-1.446.145,2.46,2.46,0,0,1-1.012-.145,5.477,5.477,0,0,0,5.06,3.759A10.916,10.916,0,0,1,39.3,20.65a4,4,0,0,1-1.3-.145,13.646,13.646,0,0,0,8.241,2.6" transform="translate(1257 844)"/></g></svg>